<svg width="300" height="300" viewBox="0 0 300 300" fill="none" xmlns="http://www.w3.org/2000/svg">
<rect x="5" y="5" width="290" height="290" stroke="#FFBB2C" stroke-width="10"/>
<path d="M28 70.9851L148.229 22L273 69.2017L152.771 118.187L28 70.9851Z" fill="#005886"/>
<path fill-rule="evenodd" clip-rule="evenodd" d="M95.7353 102.307V140C95.7353 146.627 101.108 152 107.735 152H194.706C201.333 152 206.706 146.627 206.706 140V101.909L152.771 123.884L95.7353 102.307Z" fill="#005886"/>
<path d="M35.464 270H24.664V174.672H67.576C77.656 174.672 85.672 177.456 91.624 183.024C97.48 188.592 100.408 196.032 100.408 205.344C100.408 214.752 97.432 222.24 91.48 227.808C85.624 233.28 77.656 236.016 67.576 236.016H35.464V270ZM35.464 184.896V225.936H66.856C74.344 225.936 80.008 224.112 83.848 220.464C87.688 216.816 89.608 211.824 89.608 205.488C89.608 199.056 87.688 194.016 83.848 190.368C80.008 186.72 74.344 184.896 66.856 184.896H35.464ZM125.886 185.04V217.008H178.878V227.52H125.886V259.632H185.214V270H115.086V174.672H185.214V185.04H125.886ZM285.927 270H273.975L262.311 242.352H215.079L203.415 270H191.463L231.927 174.672H245.463L285.927 270ZM258.135 232.416L238.695 185.904L219.255 232.416H258.135Z" fill="white"/>
</svg>
